<svg height="512" viewBox="0 0 64 64" width="512" xmlns="http://www.w3.org/2000/svg"><path d="m49 27a5 5 0 0 0 -5 5 4 4 0 1 0 3.9 4.87 4.94 4.94 0 0 0 1.1.13 5 5 0 0 0 0-10z" fill="#7ab92d"/><path d="m16 25 .68 1.53a74.64 74.64 0 0 1 6.32 34.47h18a74.64 74.64 0 0 1 6.32-34.47l.68-1.53z" fill="#e1ff85"/><path d="m21.72 25h-5.72a81.12 81.12 0 0 1 7 33v3h18c-.07-1.33-.11-2.67-.11-4l-5-.57a10.36 10.36 0 0 1 -9.09-9.52 73.8 73.8 0 0 0 -1-7.42 4.62 4.62 0 0 0 .12-1 4.42 4.42 0 0 0 -.86-2.62c-.1-.45-.22-.89-.33-1.34a4 4 0 0 0 2.27-3.53 4.18 4.18 0 0 0 -.07-.72 11.9 11.9 0 0 0 10.19-1v.17a4 4 0 1 0 5 6 7.46 7.46 0 0 0 1.76.45 73.66 73.66 0 0 1 3.43-9.38l.69-1.52z" fill="#c4f236"/><path d="m22.68 25.53a74.61 74.61 0 0 1 5.6 19.24 1.43 1.43 0 0 0 1.42 1.23.55.55 0 0 0 .55-.59 141.66 141.66 0 0 0 -2.75-19.88z" fill="#c4f236"/><path d="m36.5 25.53a139.88 139.88 0 0 0 -2.66 18.64 1.71 1.71 0 0 0 1.71 1.83 74.49 74.49 0 0 1 5.77-20.47z" fill="#c4f236"/><path d="m35.55 47h-.14a1 1 0 0 1 -.86-1.12 75.84 75.84 0 0 1 3-13.23 1 1 0 0 1 1.9.61 73.83 73.83 0 0 0 -2.9 12.88 1 1 0 0 1 -1 .86z" fill="#a1d51c"/><path d="m27.45 46a1 1 0 0 1 -1-.87 74 74 0 0 0 -2.45-11.3.9.9 0 0 1 0-.28v-.13a1 1 0 0 1 2 0 77.43 77.43 0 0 1 2.45 11.47 1 1 0 0 1 -.86 1.11z" fill="#a1d51c"/><path d="m53 16a9 9 0 0 0 -12.49-8.3 12 12 0 0 0 -16.8-2.22 8.13 8.13 0 0 0 -2.71-.48 8 8 0 0 0 -7.74 6h-.26a10 10 0 0 0 -3.94 19.19 5.52 5.52 0 0 0 -.06.81 6 6 0 0 0 6 6 5.83 5.83 0 0 0 2.47-.54 4.49 4.49 0 1 0 6.62-5.63 4 4 0 0 0 2.91-3.83 4.18 4.18 0 0 0 -.07-.72 11.9 11.9 0 0 0 10.19-1v.17a4 4 0 1 0 5 6 7.93 7.93 0 0 0 6.88-.53 8 8 0 1 0 4-14.92z" fill="#a1d51c"/><g fill="#7ab92d"><path d="m24.5 36a4.48 4.48 0 0 1 -4-2.54 5.83 5.83 0 0 1 -2.5.54 6 6 0 0 1 -6-6 5.52 5.52 0 0 1 .06-.81 10 10 0 0 1 -4.47-14.6 10 10 0 0 0 1.47 17.6 5.52 5.52 0 0 0 -.06.81 6 6 0 0 0 6 6 5.83 5.83 0 0 0 2.47-.54 4.47 4.47 0 0 0 8.32-.67 4.58 4.58 0 0 1 -1.29.21z"/><path d="m56 29a8 8 0 0 1 -4-1.08 7.93 7.93 0 0 1 -6.87.54 4 4 0 0 1 -7.13-2.46 3.89 3.89 0 0 1 .3-1.49 11.15 11.15 0 0 1 -1.18.81v.16a4 4 0 1 0 5 6 7.93 7.93 0 0 0 6.88-.56 8 8 0 0 0 11-3 7.9 7.9 0 0 1 -4 1.08z"/><path d="m31 28a12.92 12.92 0 0 1 -9.19-3.8 1 1 0 0 1 1.41-1.41 11 11 0 0 0 15.56 0 1 1 0 1 1 1.41 1.41 12.92 12.92 0 0 1 -9.19 3.8z"/><path d="m15 29a11 11 0 0 1 -9.55-5.5 1 1 0 1 1 1.74-1 9 9 0 0 0 12.31 3.29 1 1 0 1 1 1 1.74 11 11 0 0 1 -5.5 1.47z"/><path d="m12.5 24.5a5 5 0 0 1 -5-5 1 1 0 0 1 2 0 3 3 0 0 0 6 0 1 1 0 0 1 2 0 5 5 0 0 1 -5 5z"/></g><path d="m61 24a8 8 0 0 0 -8-8 9 9 0 0 0 -12.49-8.3 12 12 0 0 0 -16.8-2.22 8.13 8.13 0 0 0 -2.71-.48 8 8 0 0 0 -7.47 5.17 8 8 0 0 1 5.47-2.17 8.13 8.13 0 0 1 2.71.48 12 12 0 0 1 16.8 2.22 9 9 0 0 1 12.49 8.3 8 8 0 0 1 7.48 10.82 8 8 0 0 0 2.52-5.82z" fill="#c4f236"/><path d="m29 21a6 6 0 0 1 -5.22-3.08 4.13 4.13 0 0 1 -.78.08 4 4 0 0 1 -4-4 1 1 0 0 1 2 0 2 2 0 0 0 2.87 1.79 1 1 0 0 1 1.38.56 4 4 0 0 0 3.75 2.65 4 4 0 0 0 3.45-2 1 1 0 0 1 .64-.47 1 1 0 0 1 .79.15 2 2 0 0 0 3.12-1.68 1 1 0 0 1 2 0 4 4 0 0 1 -4 4 3.84 3.84 0 0 1 -1.35-.24 6 6 0 0 1 -4.65 2.24z" fill="#7ab92d"/><path d="m52 26a6 6 0 0 1 -5.22-3.08 4.13 4.13 0 0 1 -.78.08 4 4 0 0 1 -4-4 1 1 0 0 1 2 0 2 2 0 0 0 2.87 1.79 1 1 0 0 1 1.38.56 4 4 0 0 0 3.75 2.65 4 4 0 0 0 3.45-2 1 1 0 0 1 1.73 1 6 6 0 0 1 -5.18 3z" fill="#7ab92d"/></svg>